<mxfile
  host="Electron" 
  agent="Mozilla/5.0 (Macintosh; Intel Mac OS X 10_15_7) AppleWebKit/537.36 (KHTML, like Gecko) draw.io/25.0.2 Chrome/128.0.6613.186 Electron/32.2.5 Safari/537.36" 
  version="25.0.2"
  >
  <diagram
    name="-"
    >
    <mxGraphModel
      grid="1" 
      gridSize="10" 
      guides="1" 
      tooltips="1" 
      connect="1" 
      arrows="1" 
      fold="1" 
      page="1" 
      pageScale="1" 
      pageWidth="1" 
      pageHeight="1" 
      math="0" 
      shadow="0"
      >
      <root>
        <mxCell
          id="page"
          />
        <mxCell
          id="root" 
          parent="page"
          />
        <mxCell
          style="verticalAlign=top;aspect=fixed;align=center;spacingLeft=5;spacingRight=5;spacingBottom=5;strokeColor=none;" 
          id="shape_" 
          parent="root" 
          value=" " 
          vertex="1"
          >
          <mxGeometry
            as="geometry" 
            width="102" 
            height="96" 
            x="0" 
            y="0"
            />
          </mxCell>
        <mxCell
          style="rounded=1;whiteSpace=wrap;verticalAlign=top;align=center;sketch=0;html=1;labelPosition=center;verticalLabelPosition=bottom;spacingTop=-6;fontSize=11;fontStyle=1;fontColor=#999999;shape=image;aspect=fixed;imageAspect=0;image=data:image/svg+xml,PHN2ZyB4bWxucz0iaHR0cDovL3d3dy53My5vcmcvMjAwMC9zdmciIHhtbG5zOnY9Imh0dHBzOi8vdmVjdGEuaW8vbmFubyIgd2lkdGg9IjIwLjAwMDQ2MzQ4NTcxNzc3MyIgaGVpZ2h0PSIxNi42MzE1MTU1MDI5Mjk2ODgiIHZpZXdCb3g9IjAgMC4wMDAyNDE0MDk2NTI1MTcxNzcxNiAyMC4wMDA0NjM0ODU3MTc3NzMgMTYuNjMxNTE1NTAyOTI5Njg4Ij4mI3hhOwk8c3R5bGUgdHlwZT0idGV4dC9jc3MiPiYjeGE7CS5zdDB7ZmlsbDojNjY5ZGY2O30mI3hhOwkuc3Qxe2ZpbGw6IzQyODVmNDt9JiN4YTsJPC9zdHlsZT4mI3hhOwk8cGF0aCBjbGFzcz0ic3QwIiBkPSJNLjAxIDMuMzA2aDYuNjR2MS42N0guMDF6bS0uMDEgMTBoMCA5LjE3di0xLjY3SDB6bTAtNC4xN2g0LjE4SDEwbC0xLjY3LTEuNjZIMi41MSAweiIvPiYjeGE7CTxwYXRoIGNsYXNzPSJzdDEiIGQ9Ik0xMCA1LjM4NmEuNDIuNDIgMCAwIDEgLjQyLS4zNi40MS40MSAwIDAgMSAuNDEuMzZ2OS4xOGEyLjA5IDIuMDkgMCAwIDAgMi42MSAyIDIuMTYgMi4xNiAwIDAgMCAxLjU2LTIuMTFWMi4wNjZhLjQuNCAwIDAgMSAuMTktLjQuNDEuNDEgMCAwIDEgLjQ1IDAgLjQuNCAwIDAgMSAuMTkuNHY5LjE2YTIuMDcgMi4wNyAwIDAgMCAuODEgMS42NCAyIDIgMCAwIDAgMS44LjM3IDIuMTYgMi4xNiAwIDAgMCAxLjU2LTIuMTJ2LTIuOGgtMS42N3YyLjkyYS40LjQgMCAwIDEtLjE5LjQuNDEuNDEgMCAwIDEtLjQ1IDAgLjQuNCAwIDAgMS0uMTktLjR2LTkuMTdhMi4wOSAyLjA5IDAgMCAwLTIuNjEtMiAyLjE2IDIuMTYgMCAwIDAtMS41NiAyLjEzdjEyLjM3YS40LjQgMCAwIDEtLjE5LjQuNDEuNDEgMCAwIDEtLjQ1IDAgLjQuNCAwIDAgMS0uMTktLjR2LTkuMTdhMi4wNyAyLjA3IDAgMCAwLTQuMTEtLjM2IDIuNCAyLjQgMCAwIDAtLjA1LjQ2djJMMTAgOS4xMzZ6Ii8+JiN4YTs8L3N2Zz4;strokeColor=none;" 
          id="text_to_speech_" 
          parent="shape_" 
          value=" " 
          vertex="1"
          >
          <mxGeometry
            width="42" 
            height="36" 
            as="geometry" 
            x="30" 
            y="30"
            />
          </mxCell>
        </root>
      </mxGraphModel>
    </diagram>
  </mxfile>